<svg xmlns="http://www.w3.org/2000/svg" viewBox="0 0 760 760" width="760" height="760" role="img" aria-label="The Spectra loop: Route, Spec, Plan, Build, Test, Review, Merge, Reflect arranged in a continuous clockwise cycle, learnings feeding the next change">
  <defs>
    <linearGradient id="rail" x1="0" y1="0" x2="1" y2="1">
      <stop offset="0" stop-color="#5a82d6"/>
      <stop offset="0.5" stop-color="#7d72c8"/>
      <stop offset="1" stop-color="#9a6fb0"/>
    </linearGradient>
    <marker id="arrow" viewBox="0 0 12 12" refX="9" refY="6" markerWidth="9" markerHeight="9" orient="auto" markerUnits="userSpaceOnUse">
      <path d="M1 1 L11 6 L1 11 z" fill="#8089d6"/>
    </marker>
  </defs>
  <rect x="0.5" y="0.5" width="759" height="759" rx="18" fill="#0d1117" stroke="#1b2129"/>
  <circle cx="380" cy="388" r="250" fill="none" stroke="url(#rail)" stroke-width="2" opacity="0.22"/>
  <g fill="none" stroke="#8089d6" stroke-width="2.5" stroke-linecap="round" marker-end="url(#arrow)">
    <path d="M448.9 147.7 A250 250 0 0 1 501.2 169.3"/>
    <path d="M598.7 266.8 A250 250 0 0 1 620.3 319.1"/>
    <path d="M620.3 456.9 A250 250 0 0 1 598.7 509.2"/>
    <path d="M501.2 606.7 A250 250 0 0 1 448.9 628.3"/>
    <path d="M311.1 628.3 A250 250 0 0 1 258.8 606.7"/>
    <path d="M161.3 509.2 A250 250 0 0 1 139.7 456.9"/>
    <path d="M139.7 319.1 A250 250 0 0 1 161.3 266.8"/>
    <path d="M258.8 169.3 A250 250 0 0 1 311.1 147.7"/>
  </g>
  <text x="380" y="380" text-anchor="middle" font-family="-apple-system, BlinkMacSystemFont, 'Segoe UI', Helvetica, Arial, sans-serif" font-size="24" font-weight="650" fill="#e6edf3">The Spectra loop</text>
  <text x="380" y="404" text-anchor="middle" font-family="-apple-system, BlinkMacSystemFont, 'Segoe UI', Helvetica, Arial, sans-serif" font-size="13.5" fill="#7d8896">spec-driven flow — learnings feed the next change</text>
  <g font-family="-apple-system, BlinkMacSystemFont, 'Segoe UI', Helvetica, Arial, sans-serif" text-anchor="middle">
    <rect x="321.0" y="109.0" width="118" height="58" rx="11" fill="#141a21" stroke="#28303a"/>
    <text x="380.0" y="136.0" font-size="19" font-weight="600" fill="#e6edf3">Route</text>
    <text x="380.0" y="154.0" font-size="11.5" fill="#7d8896">triage the change</text>
    <rect x="497.8" y="182.2" width="118" height="58" rx="11" fill="#141a21" stroke="#28303a"/>
    <text x="556.8" y="209.2" font-size="19" font-weight="600" fill="#e6edf3">Spec</text>
    <text x="556.8" y="227.2" font-size="11.5" fill="#7d8896">docs/specs/</text>
    <rect x="571.0" y="359.0" width="118" height="58" rx="11" fill="#141a21" stroke="#28303a"/>
    <text x="630.0" y="386.0" font-size="19" font-weight="600" fill="#e6edf3">Plan</text>
    <text x="630.0" y="404.0" font-size="11.5" fill="#7d8896">docs/plans/</text>
    <rect x="497.8" y="535.8" width="118" height="58" rx="11" fill="#141a21" stroke="#28303a"/>
    <text x="556.8" y="562.8" font-size="19" font-weight="600" fill="#e6edf3">Build</text>
    <text x="556.8" y="580.8" font-size="11.5" fill="#7d8896">git worktree</text>
    <rect x="321.0" y="609.0" width="118" height="58" rx="11" fill="#141a21" stroke="#28303a"/>
    <text x="380.0" y="636.0" font-size="19" font-weight="600" fill="#e6edf3">Test</text>
    <text x="380.0" y="654.0" font-size="11.5" fill="#7d8896">green first</text>
    <rect x="144.2" y="535.8" width="118" height="58" rx="11" fill="#141a21" stroke="#28303a"/>
    <text x="203.2" y="562.8" font-size="19" font-weight="600" fill="#e6edf3">Review</text>
    <text x="203.2" y="580.8" font-size="11.5" fill="#7d8896">4 personas</text>
    <rect x="71.0" y="359.0" width="118" height="58" rx="11" fill="#141a21" stroke="#28303a"/>
    <text x="130.0" y="386.0" font-size="19" font-weight="600" fill="#e6edf3">Merge</text>
    <text x="130.0" y="404.0" font-size="11.5" fill="#7d8896">on approval</text>
    <rect x="144.2" y="182.2" width="118" height="58" rx="11" fill="#141a21" stroke="#28303a"/>
    <text x="203.2" y="209.2" font-size="19" font-weight="600" fill="#e6edf3">Reflect</text>
    <text x="203.2" y="227.2" font-size="11.5" fill="#7d8896">docs/overview/</text>
  </g>
</svg>
